<?xml version="1.0" encoding="utf-8"?>
<!-- Generator: Adobe Illustrator 25.2.3, SVG Export Plug-In . SVG Version: 6.00 Build 0)  -->
<svg version="1.1" id="logo-dark" xmlns="http://www.w3.org/2000/svg" xmlns:xlink="http://www.w3.org/1999/xlink" x="0px" y="0px"
	 viewBox="0 0 186.9 25.7" style="enable-background:new 0 0 186.9 25.7;" xml:space="preserve">
<style type="text/css">
	.st0{fill:#FFFFFF;stroke:#FFFFFF;stroke-width:0.75;stroke-miterlimit:10;}
	.st1{fill:#FFFFFF;stroke:#FFFFFF;stroke-width:0.7468;stroke-miterlimit:10;}
	.st2{fill:#FFFFFF;stroke:#FFFFFF;stroke-width:0.7237;stroke-miterlimit:10;}
	.st3{fill:#FFFFFF;}
	.st4{font-family:'BerlinSansFBDemi-Bold';}
	.st5{font-size:24px;}
</style>
<g>
	<path class="st0" d="M17.7,65.7c0,1.1,0,2.1,0.1,2.9H17c-0.5-4.9-1-6.6-5.4-6.6H9.4c-2.4,0-2.9,0.4-2.9,2.9v8.7h2.6
		c3.1,0,3-3,3.3-4.6h0.8c-0.1,1.5-0.1,2.5-0.1,3.3c0,0.6,0,1.2,0,1.7c0,1.2,0,2.3,0.2,5h-0.8c-0.3-2.3-0.3-4.6-3.4-4.6H6.5v8.1
		c0,2.6,0.6,2.9,3.6,3v0.7c-1.2-0.1-3.3-0.1-5.2-0.1c-1.8,0-3.5,0-4.5,0.1v-0.7c2.4-0.1,2.9-0.5,2.9-3V64.9c0-2.6-0.5-2.9-2.9-3
		v-0.7c3.5,0.1,8.1,0.1,10.2,0.1s5.2,0,7.4-0.1C17.8,63,17.7,64.8,17.7,65.7z"/>
	<path class="st1" d="M51.7,61.2v0.7c-0.9,0.2-2.1,0.9-2.8,3l-6.6,21.2H42c-0.1,0-0.2,0-0.3,0l-6.1-18l-5.6,18h-0.3
		c-0.1,0-0.2,0-0.3,0l-7.4-22c-0.6-1.8-1.7-2.2-2.4-2.2v-0.7c0.9,0.1,2.4,0.1,3.7,0.1c1.5,0,2.9,0,3.8-0.1v0.7
		c-1.2,0.1-1.7,0.4-1.7,1.2c0,0.4,0.1,1,0.4,1.7L31,80.5l4.2-13.6l-0.9-2.8c-0.6-1.8-1.4-2.2-2.1-2.2v-0.7c0.8,0.1,2.2,0.1,3.4,0.1
		c1.8,0,3.5,0,4.5-0.1v0.7c-1.6,0.1-2.4,0.2-2.4,1.2c0,0.4,0.1,1,0.4,1.7l5,15.6l4.3-13.5c0.5-1.2,0.6-2.1,0.6-2.9
		c0-1.6-1-2.1-3-2.2v-0.6c1.3,0.1,2.8,0.1,4,0.1C50.3,61.3,51,61.3,51.7,61.2z"/>
	<path class="st0" d="M72.3,86.1C69.9,86,66.6,86,64.2,86c-2.1,0-6.8,0-10.2,0.1v-0.7c2.4-0.1,2.9-0.5,2.9-3V64.9
		c0-2.6-0.5-2.9-2.9-3v-0.7c3.5,0.1,8.1,0.1,10.2,0.1s5.2,0,7.4-0.1c-0.2,1.6-0.2,3.4-0.2,4.2c0,0.8,0,1.6,0.1,2.2h-0.8
		c-0.5-4.2-1-5.5-4.7-5.5h-3c-2.4,0-2.9,0.4-2.9,2.9v8.3h2.3c3.1,0,3-3,3.3-4.6h0.8c-0.1,1.5-0.1,2.5-0.1,3.3c0,0.7,0,1.2,0,1.7
		c0,1.2,0,2.3,0.2,5h-0.8c-0.3-2.3-0.3-4.7-3.4-4.7h-2.3v8.5c0,2.6,0.5,2.9,2.9,2.9h2.6c4.4,0,5.3-1.6,5.8-6.2h0.8
		c-0.1,0.6-0.1,1.6-0.1,2.5C72,82.5,72.1,84.3,72.3,86.1z"/>
	<path class="st0" d="M98.3,73.4c0,7.7-4.6,12.7-12.7,12.7c-1.1,0-3.4-0.1-4.9-0.1c-1.6,0-3.4,0-4.4,0.1v-0.7c2.4-0.1,2.9-0.5,2.9-3
		V64.9c0-2.6-0.5-2.9-2.9-3v-0.7c0.8,0.1,2.1,0.1,3.4,0.1c0.3,0,0.6,0,0.9,0c1.6,0,4-0.1,5.3-0.1C94.3,61.2,98.3,65.5,98.3,73.4z
		 M82.4,64.8v17.6c0,2.5,0.5,3,2.6,3c7.7,0,9.7-4.3,9.7-12c0.1-7.8-2.4-11.6-9.7-11.6C82.9,61.8,82.4,62.4,82.4,64.8z"/>
	<path class="st0" d="M124.3,73.4c0,7.7-4.6,12.7-12.7,12.7c-1.1,0-3.4-0.1-4.9-0.1c-1.6,0-3.4,0-4.4,0.1v-0.7
		c2.4-0.1,2.9-0.5,2.9-3V64.9c0-2.6-0.5-2.9-2.9-3v-0.7c0.8,0.1,2.1,0.1,3.4,0.1c0.3,0,0.6,0,0.9,0c1.6,0,4-0.1,5.3-0.1
		C120.3,61.2,124.3,65.5,124.3,73.4z M108.4,64.8v17.6c0,2.5,0.5,3,2.6,3c7.7,0,9.7-4.3,9.7-12c0-7.9-2.5-11.7-9.8-11.7
		C108.9,61.8,108.4,62.4,108.4,64.8z"/>
	<path class="st0" d="M137.3,61.9c-2.4,0.1-2.9,0.5-2.9,3v17.5c0,2.6,0.5,2.9,2.9,3v0.7c-1.1-0.1-2.9-0.1-4.5-0.1
		c-1.8,0-3.5,0-4.5,0.1v-0.7c2.4-0.1,2.9-0.5,2.9-3V64.9c0-2.6-0.5-2.9-2.9-3v-0.7c1,0.1,2.7,0.1,4.5,0.1c1.6,0,3.4,0,4.5-0.1V61.9z
		"/>
	<path class="st0" d="M163.2,61.9c-2.4,0.1-2.9,0.8-2.9,3.4v21h-0.8l-14.7-22.9V82c0,2.6,0.5,3.3,3.2,3.4v0.7
		c-0.8-0.1-2.4-0.1-3.6-0.1c-1.2,0-2.5,0-3.3,0.1v-0.7c2.4-0.1,2.9-0.8,2.9-3.4V64.9c0-2.6-0.5-2.9-2.9-3v-0.7
		c0.8,0.1,2.1,0.1,3.3,0.1c1,0,2,0,2.7-0.1l12.4,19.1v-15c0-2.6-0.4-3.3-3.2-3.4v-0.7c0.8,0.1,2.4,0.1,3.6,0.1c1.2,0,2.5,0,3.3-0.1
		V61.9z"/>
	<path class="st2" d="M182.7,63.4c0.3,0.2,0.5,0.3,0.7,0.3c0.4,0,0.7-0.6,0.8-2.1h0.8c-0.1,1.7-0.1,3.9-0.1,7.8h-0.8
		c-0.3-1.9-0.6-3.7-1.7-5c-1.3-1.6-3.6-2.6-5.9-2.6c-4.5,0-7.5,4.6-7.5,11.9c0,8.2,2.6,11.8,8.1,11.8c1.6,0,2.9-0.6,3.5-1.1
		c0.8-0.6,1-1,1-1.9v-3.3c0-2.8-0.6-3.2-3.4-3.3v-0.7c1.2,0.1,3.3,0.1,4.8,0.1s2.7,0,3.5-0.1v0.7c-1.5,0.1-1.7,0.4-1.7,2.9v6.7h-0.7
		c0-0.8-0.3-1.9-0.9-1.9c-0.3,0-0.4,0.1-1.1,0.6c-1.5,1.1-3.1,1.8-5.3,1.8c-7,0-11.1-4.5-11.1-12.1c0-7.9,4.6-12.9,10.9-12.9
		C179.5,61.2,181.1,62.2,182.7,63.4z"/>
</g>
<text transform="matrix(1 0 0 1 18.0046 20.5044)" class="st3 st4 st5">CHIP &amp; CHOP</text>
</svg>
